<svg width="16" height="16" viewBox="0 0 16 16" fill="none" xmlns="http://www.w3.org/2000/svg">
<path d="M15.7244 7.77851C15.7144 7.70677 15.6805 7.64052 15.6281 7.5905L9.93091 2.61331C9.87378 2.56391 9.79943 2.53914 9.72409 2.54441C9.64875 2.54968 9.57857 2.58456 9.52887 2.64142C9.47918 2.69829 9.45402 2.77252 9.4589 2.84788C9.46378 2.92324 9.49829 2.99361 9.5549 3.0436L14.9264 7.73651L12.6249 8.84766L5.15114 2.13044L7.89431 1.5933L8.69175 2.29187C8.74873 2.34185 8.82324 2.36714 8.89887 2.36218C8.9745 2.35723 9.04507 2.32243 9.09504 2.26545C9.14502 2.20846 9.17031 2.13396 9.16535 2.05833C9.16039 1.98269 9.1256 1.91213 9.06861 1.86216L8.16574 1.07072C8.13283 1.042 8.09379 1.02117 8.0516 1.00983C8.00941 0.998493 7.96519 0.996939 7.92231 1.00529L4.47941 1.67958C4.40356 1.70285 4.33704 1.74956 4.28941 1.81301L2.66368 4.52161C2.62903 4.57947 2.61596 4.64772 2.62678 4.71428C2.63761 4.78084 2.67163 4.84144 2.72282 4.88533L4.7897 6.65849L1.11366 8.8548C1.05667 8.89479 1.01266 8.95062 0.987089 9.01538L0.0127918 12.1526C-0.00902077 12.223 -0.00276664 12.2991 0.0302469 12.365C0.0632604 12.4309 0.120478 12.4816 0.189937 12.5063L1.36709 12.9263C1.43829 12.9509 1.51634 12.9465 1.58427 12.9139C1.65219 12.8813 1.70449 12.8231 1.72977 12.7522C1.75504 12.6812 1.75126 12.6031 1.71925 12.5349C1.68723 12.4667 1.62957 12.4139 1.55881 12.388L0.639942 12.0606L1.44567 9.46567L4.42456 10.4857L4.53799 13.4471L2.63568 12.7711C2.56426 12.7457 2.48568 12.7498 2.41723 12.7823C2.34878 12.8149 2.29606 12.8733 2.27068 12.9447C2.24529 13.0161 2.24932 13.0947 2.28187 13.1632C2.31442 13.2316 2.37283 13.2843 2.44425 13.3097L4.74428 14.1269C4.78581 14.1406 4.82985 14.145 4.87329 14.1399C4.91672 14.1348 4.95851 14.1202 4.99571 14.0971L7.93003 12.1914C7.96149 12.171 7.98861 12.1445 8.00985 12.1136C8.0311 12.0827 8.04604 12.0478 8.05382 12.0111C8.06161 11.9744 8.06209 11.9365 8.05524 11.8997C8.04839 11.8628 8.03433 11.8276 8.01388 11.7961C7.99344 11.7647 7.96699 11.7375 7.93606 11.7163C7.90513 11.6951 7.87031 11.6801 7.83361 11.6723C7.7969 11.6645 7.75902 11.6641 7.72213 11.6709C7.68524 11.6778 7.65006 11.6918 7.61859 11.7123L5.10599 13.3443L4.99399 10.426L7.32659 8.8348L9.36033 10.5794L8.57575 11.0894C8.54429 11.1098 8.51716 11.1363 8.49592 11.1672C8.47468 11.1982 8.45974 11.233 8.45195 11.2697C8.44417 11.3064 8.44368 11.3443 8.45054 11.3812C8.45739 11.418 8.47144 11.4532 8.49189 11.4847C8.51234 11.5161 8.53878 11.5433 8.56972 11.5645C8.60065 11.5858 8.63546 11.6007 8.67217 11.6085C8.70887 11.6163 8.74675 11.6168 8.78365 11.6099C8.82054 11.603 8.85572 11.589 8.88718 11.5685L9.81233 10.9668C9.81948 10.9691 11.8446 12.7168 11.8544 12.7154C11.8962 12.7486 11.9465 12.7693 11.9996 12.7751C12.0527 12.781 12.1063 12.7716 12.1544 12.7483L13.9915 11.8483C14.058 11.814 14.1083 11.7551 14.1318 11.6841C14.1553 11.6132 14.1501 11.5358 14.1172 11.4687C14.0844 11.4016 14.0265 11.35 13.9561 11.325C13.8856 11.3 13.8082 11.3037 13.7404 11.3351L12.4004 11.9914L12.8341 9.38138L15.1947 8.24165L15.4115 10.5191L14.7658 10.8351C14.6978 10.8685 14.6458 10.9275 14.6212 10.9992C14.5967 11.0708 14.6016 11.1494 14.635 11.2174C14.6683 11.2854 14.7273 11.3375 14.799 11.362C14.8707 11.3865 14.9492 11.3816 15.0173 11.3483L15.8401 10.9454C15.8923 10.9199 15.9354 10.8791 15.9637 10.8285C15.992 10.7778 16.0042 10.7197 15.9987 10.662L15.7244 7.77851ZM4.65942 9.96196L1.93567 9.02909L5.24714 7.05078L6.87744 8.44937L4.65942 9.96196ZM11.8292 11.944L3.27769 4.60876L4.60085 2.40416L12.2692 9.29566L11.8292 11.944Z" fill="white"/>
<path d="M9.54832 12.0747C9.47254 12.0747 9.39987 12.1048 9.34629 12.1584C9.2927 12.212 9.2626 12.2847 9.2626 12.3604V12.623C9.2626 12.6988 9.2927 12.7715 9.34629 12.825C9.39987 12.8786 9.47254 12.9087 9.54832 12.9087C9.6241 12.9087 9.69677 12.8786 9.75035 12.825C9.80393 12.7715 9.83404 12.6988 9.83404 12.623V12.3604C9.83404 12.2847 9.80393 12.212 9.75035 12.1584C9.69677 12.1048 9.6241 12.0747 9.54832 12.0747ZM8.95088 12.9347H8.68831C8.61253 12.9347 8.53986 12.9648 8.48628 13.0184C8.43269 13.072 8.40259 13.1447 8.40259 13.2204C8.40259 13.2962 8.43269 13.3689 8.48628 13.4225C8.53986 13.4761 8.61253 13.5062 8.68831 13.5062H8.9506C9.02637 13.5062 9.09905 13.4761 9.15263 13.4225C9.20621 13.3689 9.23631 13.2962 9.23631 13.2204C9.23631 13.1447 9.20621 13.072 9.15263 13.0184C9.09905 12.9648 9.02637 12.9347 8.9506 12.9347H8.95088ZM9.54832 13.5327C9.47254 13.5327 9.39987 13.5628 9.34629 13.6164C9.2927 13.67 9.2626 13.7427 9.2626 13.8184V14.081C9.2626 14.1568 9.2927 14.2295 9.34629 14.2831C9.39987 14.3366 9.47254 14.3667 9.54832 14.3667C9.6241 14.3667 9.69677 14.3366 9.75035 14.2831C9.80393 14.2295 9.83404 14.1568 9.83404 14.081V13.8184C9.83404 13.7427 9.80393 13.67 9.75035 13.6164C9.69677 13.5628 9.6241 13.5327 9.54832 13.5327ZM10.4086 12.9347H10.1463C10.0705 12.9347 9.99788 12.9648 9.94429 13.0184C9.89071 13.072 9.86061 13.1447 9.86061 13.2204C9.86061 13.2962 9.89071 13.3689 9.94429 13.4225C9.99788 13.4761 10.0705 13.5062 10.1463 13.5062H10.4086C10.4844 13.5062 10.5571 13.4761 10.6106 13.4225C10.6642 13.3689 10.6943 13.2962 10.6943 13.2204C10.6943 13.1447 10.6642 13.072 10.6106 13.0184C10.5571 12.9648 10.4844 12.9347 10.4086 12.9347ZM1.83937 6.32723C1.91515 6.32723 1.98782 6.29712 2.04141 6.24354C2.09499 6.18996 2.12509 6.11729 2.12509 6.04151V5.77893C2.12509 5.70316 2.09499 5.63048 2.04141 5.5769C1.98782 5.52332 1.91515 5.49322 1.83937 5.49322C1.7636 5.49322 1.69092 5.52332 1.63734 5.5769C1.58376 5.63048 1.55365 5.70316 1.55365 5.77893V6.04151C1.55365 6.11729 1.58376 6.18996 1.63734 6.24354C1.69092 6.29712 1.7636 6.32723 1.83937 6.32723ZM0.979077 6.92495H1.24137C1.31714 6.92495 1.38982 6.89484 1.4434 6.84126C1.49698 6.78768 1.52708 6.71501 1.52708 6.63923C1.52708 6.56345 1.49698 6.49078 1.4434 6.4372C1.38982 6.38361 1.31714 6.35351 1.24137 6.35351H0.979077C0.9033 6.35351 0.830627 6.38361 0.777044 6.4372C0.723462 6.49078 0.693359 6.56345 0.693359 6.63923C0.693359 6.71501 0.723462 6.78768 0.777044 6.84126C0.830627 6.89484 0.9033 6.92495 0.979077 6.92495ZM1.83937 7.78524C1.91515 7.78524 1.98782 7.75514 2.04141 7.70156C2.09499 7.64797 2.12509 7.5753 2.12509 7.49952V7.23695C2.12509 7.16117 2.09499 7.0885 2.04141 7.03492C1.98782 6.98134 1.91515 6.95123 1.83937 6.95123C1.7636 6.95123 1.69092 6.98134 1.63734 7.03492C1.58376 7.0885 1.55365 7.16117 1.55365 7.23695V7.49952C1.55365 7.5753 1.58376 7.64797 1.63734 7.70156C1.69092 7.75514 1.7636 7.78524 1.83937 7.78524ZM2.43681 6.92495H2.69938C2.77516 6.92495 2.84783 6.89484 2.90142 6.84126C2.955 6.78768 2.9851 6.71501 2.9851 6.63923C2.9851 6.56345 2.955 6.49078 2.90142 6.4372C2.84783 6.38361 2.77516 6.35351 2.69938 6.35351H2.43681C2.36103 6.35351 2.28836 6.38361 2.23478 6.4372C2.18119 6.49078 2.15109 6.56345 2.15109 6.63923C2.15109 6.71501 2.18119 6.78768 2.23478 6.84126C2.28836 6.89484 2.36103 6.92495 2.43681 6.92495ZM12.9201 2.77033C12.9958 2.77033 13.0685 2.74023 13.1221 2.68665C13.1757 2.63306 13.2058 2.56039 13.2058 2.48461V2.22175C13.2058 2.14598 13.1757 2.0733 13.1221 2.01972C13.0685 1.96614 12.9958 1.93604 12.9201 1.93604C12.8443 1.93604 12.7716 1.96614 12.718 2.01972C12.6645 2.0733 12.6344 2.14598 12.6344 2.22175V2.48461C12.6344 2.56039 12.6645 2.63306 12.718 2.68665C12.7716 2.74023 12.8443 2.77033 12.9201 2.77033ZM12.0598 3.36776H12.3226C12.3984 3.36776 12.4711 3.33766 12.5247 3.28408C12.5783 3.2305 12.6084 3.15782 12.6084 3.08205C12.6084 3.00627 12.5783 2.9336 12.5247 2.88001C12.4711 2.82643 12.3984 2.79633 12.3226 2.79633H12.0598C11.984 2.79633 11.9113 2.82643 11.8577 2.88001C11.8042 2.9336 11.7741 3.00627 11.7741 3.08205C11.7741 3.15782 11.8042 3.2305 11.8577 3.28408C11.9113 3.33766 11.984 3.36776 12.0598 3.36776ZM12.9201 4.22806C12.9958 4.22806 13.0685 4.19796 13.1221 4.14438C13.1757 4.09079 13.2058 4.01812 13.2058 3.94234V3.68005C13.2058 3.60428 13.1757 3.5316 13.1221 3.47802C13.0685 3.42444 12.9958 3.39434 12.9201 3.39434C12.8443 3.39434 12.7716 3.42444 12.718 3.47802C12.6645 3.5316 12.6344 3.60428 12.6344 3.68005V3.94234C12.6344 4.01812 12.6645 4.09079 12.718 4.14438C12.7716 4.19796 12.8443 4.22806 12.9201 4.22806ZM13.5178 3.36776H13.7804C13.8561 3.36776 13.9288 3.33766 13.9824 3.28408C14.036 3.2305 14.0661 3.15782 14.0661 3.08205C14.0661 3.00627 14.036 2.9336 13.9824 2.88001C13.9288 2.82643 13.8561 2.79633 13.7804 2.79633H13.5175C13.4417 2.79633 13.3691 2.82643 13.3155 2.88001C13.2619 2.9336 13.2318 3.00627 13.2318 3.08205C13.2318 3.15782 13.2619 3.2305 13.3155 3.28408C13.3691 3.33766 13.442 3.36776 13.5178 3.36776Z" fill="white"/>
</svg>
