<svg width="16" height="16" viewBox="0 0 16 16" fill="none" xmlns="http://www.w3.org/2000/svg">
<path d="M12.0424 4.88807C12.0226 4.85715 11.9954 4.83171 11.9632 4.81408C11.931 4.79645 11.8949 4.78721 11.8582 4.78719H4.14243C4.10572 4.78721 4.06961 4.79645 4.03741 4.81408C4.00522 4.83171 3.97797 4.85715 3.95818 4.88807L3.50418 5.59757C3.34336 5.40866 3.25508 5.16865 3.25518 4.92057C3.25518 4.86255 3.23213 4.80691 3.19111 4.76589C3.15009 4.72486 3.09445 4.70182 3.03643 4.70182C2.97841 4.70182 2.92277 4.72486 2.88175 4.76589C2.84073 4.80691 2.81768 4.86255 2.81768 4.92057C2.81745 5.19874 2.70684 5.46545 2.51014 5.66215C2.31344 5.85885 2.04673 5.96946 1.76855 5.96969C1.71054 5.96969 1.6549 5.99274 1.61388 6.03376C1.57285 6.07479 1.5498 6.13042 1.5498 6.18844C1.5498 6.24646 1.57285 6.3021 1.61388 6.34312C1.6549 6.38414 1.71054 6.40719 1.76855 6.40719C1.94844 6.40742 2.12525 6.45392 2.28197 6.54223C2.43869 6.63054 2.57005 6.75769 2.66343 6.91144L2.02918 7.90232C2.00303 7.9432 1.99122 7.99163 1.99561 8.03997C2 8.0883 2.02034 8.13381 2.05343 8.16932L7.84093 14.3806C7.86137 14.4026 7.88613 14.4201 7.91366 14.4321C7.94119 14.4441 7.9709 14.4503 8.00093 14.4503C8.03096 14.4503 8.06067 14.4441 8.0882 14.4321C8.11573 14.4201 8.14049 14.4026 8.16093 14.3806L10.5003 11.8692C10.662 12.0062 10.792 12.1768 10.8811 12.3691C10.9703 12.5614 11.0165 12.7707 11.0166 12.9827C11.0166 13.0407 11.0396 13.0963 11.0806 13.1374C11.1216 13.1784 11.1773 13.2014 11.2353 13.2014C11.2933 13.2014 11.349 13.1784 11.39 13.1374C11.431 13.0963 11.4541 13.0407 11.4541 12.9827C11.4545 12.5948 11.6088 12.2228 11.8831 11.9485C12.1575 11.6742 12.5294 11.5199 12.9173 11.5194C12.9753 11.5194 13.031 11.4964 13.072 11.4554C13.113 11.4143 13.1361 11.3587 13.1361 11.3007C13.1361 11.2427 13.113 11.187 13.072 11.146C13.031 11.105 12.9753 11.0819 12.9173 11.0819C12.6943 11.0818 12.4743 11.0305 12.2742 10.9321C12.074 10.8337 11.8991 10.6908 11.7628 10.5143L13.9474 8.16932C13.9805 8.13381 14.0009 8.0883 14.0053 8.03997C14.0096 7.99163 13.9978 7.9432 13.9717 7.90232L12.0424 4.88807ZM13.3878 7.80157H10.3289L11.8582 5.41232L13.3878 7.80157ZM6.07168 7.61407L4.54205 5.22482H7.6003L6.07168 7.61407ZM8.0003 5.41232L9.52955 7.80157H6.47105L8.0003 5.41232ZM5.9103 8.23907L7.5073 13.3814L2.7163 8.23907H5.9103ZM6.3683 8.23907H9.63231L8.0003 13.4941L6.3683 8.23907ZM9.9293 7.61407L8.4003 5.22482H11.4586L9.9293 7.61407ZM4.14243 5.41232L5.67168 7.80157H2.6128L2.81955 7.47844C2.82491 7.53436 2.85164 7.58605 2.89416 7.62275C2.93668 7.65945 2.99172 7.67834 3.04782 7.67547C3.10392 7.6726 3.15675 7.6482 3.1953 7.60736C3.23386 7.56651 3.25517 7.51236 3.2548 7.45619C3.25507 7.17804 3.36569 6.91136 3.56239 6.71468C3.75908 6.51801 4.02578 6.40742 4.30393 6.40719C4.36195 6.40719 4.41759 6.38414 4.45861 6.34312C4.49963 6.3021 4.52268 6.24646 4.52268 6.18844C4.52268 6.13042 4.49963 6.07479 4.45861 6.03376C4.41759 5.99274 4.36195 5.96969 4.30393 5.96969C4.14723 5.96955 3.99259 5.934 3.85155 5.86569L4.14243 5.41232ZM3.03643 5.69607C3.13469 5.85505 3.26189 5.99421 3.41143 6.10632C3.41718 6.11137 3.42319 6.11613 3.42943 6.12057C3.43218 6.12232 3.4353 6.12332 3.43818 6.12494C3.46805 6.14657 3.49743 6.16907 3.52905 6.18844C3.32853 6.31155 3.15984 6.48019 3.03668 6.68069C2.91353 6.48023 2.74489 6.31159 2.54443 6.18844C2.74484 6.06525 2.91339 5.89657 3.03643 5.69607ZM12.0324 11.3007C11.6926 11.4803 11.4148 11.7582 11.2352 12.0979C11.0871 11.8187 10.872 11.5805 10.6093 11.4047C10.6003 11.3973 10.5907 11.3908 10.5806 11.3851C10.5342 11.3551 10.4869 11.3266 10.4379 11.3007C10.7778 11.1211 11.0556 10.8433 11.2352 10.5034C11.2496 10.5307 11.2656 10.5567 11.2812 10.5831C11.2875 10.5975 11.2954 10.6111 11.3047 10.6238C11.4834 10.9096 11.7344 11.1431 12.0324 11.3007ZM11.4539 9.61882C11.4539 9.5608 11.4309 9.50516 11.3899 9.46414C11.3488 9.42311 11.2932 9.40007 11.2352 9.40007C11.1772 9.40007 11.1215 9.42311 11.0805 9.46414C11.0395 9.50516 11.0164 9.5608 11.0164 9.61882C11.0158 10.0066 10.8614 10.3784 10.5871 10.6525C10.3128 10.9267 9.941 11.0809 9.55318 11.0813C9.49516 11.0813 9.43952 11.1044 9.3985 11.1454C9.35748 11.1864 9.33443 11.2421 9.33443 11.3001C9.33443 11.3581 9.35748 11.4137 9.3985 11.4547C9.43952 11.4958 9.49516 11.5188 9.55318 11.5188C9.7483 11.5186 9.94148 11.5577 10.1212 11.6337L8.4933 13.3814L10.0903 8.23907H13.2843L11.5408 10.1106C11.4837 9.9529 11.4543 9.78652 11.4539 9.61882ZM8.0003 3.58907C8.02904 3.58908 8.05749 3.58344 8.08404 3.57245C8.11058 3.56146 8.13471 3.54535 8.15502 3.52503C8.17534 3.50472 8.19145 3.4806 8.20244 3.45405C8.21342 3.4275 8.21907 3.39905 8.21905 3.37032V1.76807C8.21905 1.71005 8.19601 1.65441 8.15498 1.61339C8.11396 1.57236 8.05832 1.54932 8.0003 1.54932C7.94229 1.54932 7.88665 1.57236 7.84562 1.61339C7.8046 1.65441 7.78155 1.71005 7.78155 1.76807V3.37032C7.78154 3.39905 7.78719 3.4275 7.79817 3.45405C7.80916 3.4806 7.82527 3.50472 7.84559 3.52503C7.8659 3.54535 7.89003 3.56146 7.91657 3.57245C7.94312 3.58344 7.97157 3.58908 8.0003 3.58907ZM6.2928 3.85682C6.33381 3.89783 6.38943 3.92086 6.44743 3.92086C6.50543 3.92086 6.56105 3.89783 6.60205 3.85682C6.64306 3.81581 6.6661 3.76019 6.6661 3.70219C6.6661 3.6442 6.64306 3.58858 6.60205 3.54757L5.46918 2.41457C5.449 2.39367 5.42487 2.377 5.39818 2.36553C5.3715 2.35406 5.3428 2.34802 5.31375 2.34776C5.2847 2.3475 5.2559 2.35303 5.22901 2.36403C5.20213 2.37502 5.1777 2.39126 5.15716 2.41179C5.13661 2.43233 5.12037 2.45675 5.10936 2.48363C5.09836 2.51051 5.09282 2.53931 5.09306 2.56836C5.09331 2.5974 5.09934 2.62611 5.1108 2.6528C5.12226 2.67949 5.13892 2.70363 5.1598 2.72382L6.2928 3.85682ZM9.55318 3.92094C9.58191 3.92097 9.61036 3.91533 9.6369 3.90432C9.66343 3.89332 9.68753 3.87717 9.70781 3.85682L10.8408 2.72382C10.8617 2.70363 10.8784 2.67949 10.8898 2.6528C10.9013 2.62611 10.9073 2.5974 10.9075 2.56836C10.9078 2.53931 10.9023 2.51051 10.8912 2.48363C10.8802 2.45675 10.864 2.43233 10.8435 2.41179C10.8229 2.39126 10.7985 2.37502 10.7716 2.36403C10.7447 2.35303 10.7159 2.3475 10.6869 2.34776C10.6578 2.34802 10.6291 2.35406 10.6024 2.36553C10.5757 2.377 10.5516 2.39367 10.5314 2.41457L9.39855 3.54757C9.36798 3.57816 9.34717 3.61713 9.33874 3.65955C9.3303 3.70196 9.33464 3.74593 9.35118 3.78589C9.36773 3.82585 9.39575 3.86 9.43171 3.88404C9.46766 3.90808 9.50993 3.92092 9.55318 3.92094ZM14.2296 3.48344C14.012 3.48321 13.8035 3.39669 13.6497 3.24286C13.4959 3.08903 13.4094 2.88047 13.4092 2.66294C13.4092 2.60493 13.3861 2.54929 13.3451 2.50826C13.3041 2.46724 13.2484 2.44419 13.1904 2.44419C13.1324 2.44419 13.0768 2.46724 13.0357 2.50826C12.9947 2.54929 12.9717 2.60493 12.9717 2.66294C12.9714 2.88049 12.8849 3.08905 12.731 3.24287C12.5772 3.39669 12.3686 3.48321 12.1511 3.48344C12.093 3.48344 12.0374 3.50649 11.9964 3.54751C11.9554 3.58854 11.9323 3.64418 11.9323 3.70219C11.9323 3.76021 11.9554 3.81585 11.9964 3.85687C12.0374 3.89789 12.093 3.92094 12.1511 3.92094C12.3686 3.92117 12.5772 4.00769 12.731 4.16151C12.8849 4.31533 12.9714 4.52389 12.9717 4.74144C12.9717 4.79946 12.9947 4.8551 13.0357 4.89612C13.0768 4.93714 13.1324 4.96019 13.1904 4.96019C13.2484 4.96019 13.3041 4.93714 13.3451 4.89612C13.3861 4.8551 13.4092 4.79946 13.4092 4.74144C13.4094 4.52391 13.4959 4.31535 13.6497 4.16152C13.8035 4.0077 14.012 3.92117 14.2296 3.92094C14.2876 3.92094 14.3432 3.89789 14.3842 3.85687C14.4253 3.81585 14.4483 3.76021 14.4483 3.70219C14.4483 3.64418 14.4253 3.58854 14.3842 3.54751C14.3432 3.50649 14.2876 3.48344 14.2296 3.48344ZM13.1904 4.03344C13.1016 3.90346 12.9893 3.79117 12.8593 3.70232C12.9893 3.61351 13.1016 3.50126 13.1904 3.37132C13.2792 3.50128 13.3915 3.61354 13.5214 3.70232C13.3915 3.7911 13.2792 3.90348 13.1904 4.03344Z" fill="white"/>
</svg>
