<svg width="164" height="50" viewBox="0 0 164 50" fill="none" xmlns="http://www.w3.org/2000/svg">
<path d="M35.4036 19.5674C35.1633 19.272 34.8625 19.0345 34.5225 18.8716C34.1824 18.7087 33.8116 18.6245 33.4362 18.625H19.6239L19.588 18.3179C19.5146 17.6795 19.215 17.0909 18.7461 16.6637C18.2772 16.2364 17.6715 16.0003 17.044 16H16.8543C16.6277 16 16.4104 16.0922 16.2502 16.2563C16.09 16.4204 16 16.6429 16 16.875C16 17.1071 16.09 17.3296 16.2502 17.4937C16.4104 17.6578 16.6277 17.75 16.8543 17.75H17.044C17.2532 17.75 17.4552 17.8287 17.6115 17.9711C17.7679 18.1135 17.8678 18.3098 17.8923 18.5226L19.0678 28.7601C19.1898 29.8248 19.6893 30.8066 20.4713 31.519C21.2534 32.2315 22.2636 32.625 23.3102 32.625H32.2316C32.4582 32.625 32.6755 32.5328 32.8357 32.3687C32.9959 32.2046 33.0859 31.9821 33.0859 31.75C33.0859 31.5179 32.9959 31.2954 32.8357 31.1313C32.6755 30.9672 32.4582 30.875 32.2316 30.875H23.3102C22.7815 30.8735 22.2661 30.7045 21.8348 30.3912C21.4035 30.0779 21.0774 29.6356 20.9011 29.125H31.0843C32.0858 29.1251 33.0555 28.7647 33.8239 28.1069C34.5923 27.4491 35.1106 26.5356 35.2883 25.5261L35.9589 21.7164C36.0259 21.3384 36.0108 20.9499 35.9149 20.5786C35.8189 20.2072 35.6444 19.862 35.4036 19.5674ZM34.2819 21.4057L33.6105 25.2155C33.5038 25.8219 33.1923 26.3705 32.7304 26.7653C32.2686 27.1601 31.6859 27.3759 31.0843 27.375H20.6294L19.8255 20.375H33.4362C33.5617 20.3742 33.6858 20.4018 33.7997 20.4557C33.9136 20.5097 34.0146 20.5886 34.0953 20.687C34.176 20.7854 34.2346 20.9008 34.2669 21.0251C34.2991 21.1493 34.3043 21.2793 34.2819 21.4057Z" fill="#333A40"/>
<path d="M21.9801 37C22.9237 37 23.6887 36.2165 23.6887 35.25C23.6887 34.2835 22.9237 33.5 21.9801 33.5C21.0364 33.5 20.2715 34.2835 20.2715 35.25C20.2715 36.2165 21.0364 37 21.9801 37Z" fill="#333A40"/>
<path d="M30.523 37C31.4667 37 32.2316 36.2165 32.2316 35.25C32.2316 34.2835 31.4667 33.5 30.523 33.5C29.5794 33.5 28.8145 34.2835 28.8145 35.25C28.8145 36.2165 29.5794 37 30.523 37Z" fill="#333A40"/>
<circle cx="25" cy="25" r="24.25" stroke="#C6D0E7" stroke-width="1.5"/>
<path d="M87.5815 16C86.6435 16.0141 85.726 16.2674 84.9215 16.7343C84.1171 17.2013 83.4543 17.8653 83 18.6593C82.5457 17.8653 81.8829 17.2013 81.0785 16.7343C80.2741 16.2674 79.3565 16.0141 78.4185 16C76.9232 16.0628 75.5144 16.6956 74.4999 17.7601C73.4854 18.8246 72.9476 20.2343 73.004 21.6812C73.004 25.3453 76.9908 29.3471 80.3344 32.0604C81.081 32.6673 82.0249 33 83 33C83.9751 33 84.919 32.6673 85.6656 32.0604C89.0092 29.3471 92.996 25.3453 92.996 21.6812C93.0524 20.2343 92.5146 18.8246 91.5001 17.7601C90.4856 16.6956 89.0768 16.0628 87.5815 16ZM84.5952 30.8274C84.1487 31.1912 83.5837 31.3906 83 31.3906C82.4163 31.3906 81.8513 31.1912 81.4048 30.8274C77.1249 27.3535 74.67 24.0205 74.67 21.6812C74.6131 20.6616 74.9752 19.6615 75.6774 18.8992C76.3796 18.1368 77.365 17.674 78.4185 17.6117C79.4721 17.674 80.4574 18.1368 81.1596 18.8992C81.8618 19.6615 82.2239 20.6616 82.167 21.6812C82.167 21.8949 82.2548 22.0999 82.411 22.251C82.5672 22.4021 82.7791 22.487 83 22.487C83.2209 22.487 83.4328 22.4021 83.589 22.251C83.7452 22.0999 83.833 21.8949 83.833 21.6812C83.7761 20.6616 84.1382 19.6615 84.8404 18.8992C85.5426 18.1368 86.5279 17.674 87.5815 17.6117C88.635 17.674 89.6204 18.1368 90.3226 18.8992C91.0248 19.6615 91.3869 20.6616 91.33 21.6812C91.33 24.0205 88.8751 27.3535 84.5952 30.8242V30.8274Z" fill="#333A40"/>
<circle cx="82" cy="25" r="24.25" stroke="#C6D0E7" stroke-width="1.5"/>
<path d="M139.5 25C140.489 25 141.456 24.7068 142.278 24.1573C143.1 23.6079 143.741 22.827 144.119 21.9134C144.498 20.9998 144.597 19.9945 144.404 19.0246C144.211 18.0546 143.735 17.1637 143.036 16.4645C142.336 15.7652 141.445 15.289 140.475 15.0961C139.506 14.9031 138.5 15.0022 137.587 15.3806C136.673 15.759 135.892 16.3999 135.343 17.2222C134.793 18.0444 134.5 19.0111 134.5 20C134.501 21.3257 135.029 22.5967 135.966 23.5341C136.903 24.4715 138.174 24.9987 139.5 25ZM139.5 16.6667C140.159 16.6667 140.804 16.8622 141.352 17.2284C141.9 17.5947 142.327 18.1153 142.58 18.7244C142.832 19.3335 142.898 20.0037 142.769 20.6503C142.641 21.2969 142.323 21.8909 141.857 22.357C141.391 22.8232 140.797 23.1407 140.15 23.2693C139.504 23.3979 138.833 23.3319 138.224 23.0796C137.615 22.8273 137.095 22.4001 136.728 21.8519C136.362 21.3037 136.167 20.6593 136.167 20C136.167 19.1159 136.518 18.2681 137.143 17.643C137.768 17.0179 138.616 16.6667 139.5 16.6667Z" fill="black"/>
<path d="M139.5 26.6667C137.512 26.6689 135.605 27.4598 134.199 28.8658C132.793 30.2718 132.002 32.1782 132 34.1667C132 34.3877 132.088 34.5996 132.244 34.7559C132.4 34.9122 132.612 35 132.833 35C133.054 35 133.266 34.9122 133.423 34.7559C133.579 34.5996 133.667 34.3877 133.667 34.1667C133.667 32.6196 134.281 31.1358 135.375 30.0419C136.469 28.9479 137.953 28.3333 139.5 28.3333C141.047 28.3333 142.531 28.9479 143.625 30.0419C144.719 31.1358 145.333 32.6196 145.333 34.1667C145.333 34.3877 145.421 34.5996 145.577 34.7559C145.734 34.9122 145.946 35 146.167 35C146.388 35 146.6 34.9122 146.756 34.7559C146.912 34.5996 147 34.3877 147 34.1667C146.998 32.1782 146.207 30.2718 144.801 28.8658C143.395 27.4598 141.488 26.6689 139.5 26.6667Z" fill="black"/>
<circle cx="139" cy="25" r="24.25" stroke="#C6D0E7" stroke-width="1.5"/>
</svg>
