<svg width="16" height="16" viewBox="0 0 16 16" fill="none" xmlns="http://www.w3.org/2000/svg">
<path d="M2.14894 11.7335C2.49482 12.1315 2.94401 12.4505 3.43606 12.6358C4.27098 13.0551 5.19717 13.0746 6.11757 12.9124C6.14421 12.9073 6.16924 12.8958 6.19055 12.879C6.48823 12.8304 6.79287 12.7229 7.10724 12.5582C8.92557 14.8139 11.2918 15.4232 13.1145 14.8083C14.4065 14.484 15.2701 13.6271 15.8083 12.1428C15.817 12.1173 15.8196 12.0901 15.8157 12.0634C16.0854 11.3487 16.011 10.5406 15.8952 9.86395C15.5975 8.11767 14.6025 6.51363 12.938 5.09631C12.4642 4.69275 11.5686 4.13398 10.5766 3.85089C10.5228 3.69128 10.4595 3.53501 10.3871 3.38293C10.3902 3.35723 10.3875 3.33117 10.379 3.30671C10.2308 2.89319 9.73291 1.86507 8.31328 1.25139C7.843 1.04845 7.28377 0.971076 6.69905 1.00953C5.28891 0.985439 4.04766 1.72607 3.08046 2.76462C0.441813 5.59717 0.524285 9.86395 2.14917 11.7335H2.14894ZM4.8608 12.2865C5.42536 12.2373 5.95471 11.8868 6.3951 11.5437C6.54954 11.796 6.71519 12.0413 6.89156 12.2788C6.21325 12.6189 5.49231 12.6907 4.8608 12.2865ZM12.5773 14.5605C11.5188 14.7101 10.4467 14.4303 9.39144 13.7325C8.60147 13.2099 7.97551 12.6777 7.47605 12.1048C6.10437 10.5589 5.5025 8.46076 5.68598 7.17966C5.80344 6.36884 6.21186 5.29137 7.00623 4.69854C7.19305 4.55939 7.39173 4.4369 7.59999 4.33252C7.07967 4.81855 6.80469 5.42527 6.76299 6.18721C6.66522 7.92469 7.58516 9.69622 8.71081 11.0209C10.8769 13.5717 13.6809 13.8958 14.9023 13.173C14.3486 13.969 13.5906 14.4185 12.5773 14.5605ZM8.51552 4.16734C8.59429 4.44464 8.65452 4.72727 8.6902 5.01337C8.27317 4.97208 7.85237 4.99128 7.44083 5.07036C7.6864 4.66449 8.04802 4.3441 8.51552 4.16734ZM7.11002 6.20644C7.12253 5.98034 7.16006 5.77138 7.2189 5.57539C7.26639 5.56844 7.66462 5.46836 8.72912 5.50473C8.79676 7.46623 7.84092 8.69196 7.74107 8.91922C7.26245 7.95597 7.06067 7.08422 7.11002 6.20644ZM10.7912 6.90722C10.8224 6.74043 10.8449 6.55602 10.8597 6.36212C11.6953 6.7307 13.1444 8.14825 13.8436 9.8475C14.0225 10.2815 14.1573 10.7325 14.246 11.1935C14.3826 11.9081 14.3826 12.6608 13.8438 13.1466C13.6295 13.1684 13.4212 13.1675 13.2364 13.1519C11.6893 13.0259 10.2518 12.2478 9.06966 10.902C9.92149 9.85329 10.4877 8.54624 10.7912 6.90722ZM10.5317 5.85362C10.5317 7.24221 9.94373 9.25259 8.84425 10.634C8.57139 10.298 8.32362 9.94234 8.10293 9.56997C8.60564 8.69683 8.94364 7.70276 9.10511 6.6107C9.34604 4.99021 9.13939 3.36462 8.0793 2.13241C9.87423 2.18059 10.5379 4.0668 10.5317 5.85362ZM7.50663 2.19472C7.86558 2.64773 8.15316 3.15295 8.35938 3.69289C7.91852 3.7895 7.36948 3.99452 6.79866 4.41985C6.47202 4.66379 6.18707 4.99832 5.95286 5.38913C5.86037 5.52003 5.77604 5.65651 5.70035 5.79779C5.40831 6.34824 5.23961 6.95567 5.20598 7.57789C5.14018 8.77744 5.52567 9.95893 6.09556 11.0218C5.19045 11.7476 4.83995 11.7481 4.24967 11.6848C3.21459 10.2177 2.98247 7.51326 4.62496 4.72611C5.27872 3.61922 6.02908 2.86191 6.9189 2.41063C7.10578 2.31613 7.30301 2.24368 7.50663 2.19472ZM15.553 9.92256C15.7562 11.1091 15.711 12.3673 14.637 12.9221C14.823 12.5241 14.8344 12.0402 14.814 11.7226C14.6449 9.14417 13.102 7.41063 11.8369 6.41054C11.5333 6.16925 11.213 5.94985 10.8783 5.754C10.8743 5.35323 10.8349 4.81414 10.6952 4.25027C11.5468 4.53221 12.3 5.0092 12.713 5.36087C14.3138 6.72398 15.2692 8.25852 15.553 9.92256ZM8.79769 1.90468C6.97866 1.34127 5.29656 2.90547 4.32589 4.54958C2.11002 8.30879 3.24888 11.7833 4.77717 12.6411C3.80858 12.5591 3.03923 12.1268 2.41026 11.3186C1.75349 10.4748 1.46021 9.40734 1.53781 8.14593C1.66662 6.06096 2.23813 4.56395 3.44904 3.14153C3.89221 2.62075 4.62913 1.95912 5.36814 1.66421C6.128 1.36073 7.26431 1.17679 8.17544 1.57039C8.40965 1.67163 8.61583 1.78514 8.79769 1.90468Z" fill="white"/>
</svg>
