<svg width="16" height="16" viewBox="0 0 16 16" fill="none" xmlns="http://www.w3.org/2000/svg">
<path d="M15 6.5C15 5.9485 14.5515 5.5 14 5.5C13.8965 5.5 13.7985 5.52025 13.7045 5.54975C13.5644 5.40976 13.4104 5.28436 13.245 5.1755C13.2467 5.1585 13.25 5.14225 13.25 5.125C13.25 4.99239 13.1973 4.86521 13.1036 4.77145C13.0098 4.67768 12.8826 4.625 12.75 4.625C12.6255 4.625 12.513 4.67225 12.4253 4.74775C12.2839 4.68969 12.1408 4.63616 11.996 4.58725C11.9866 4.36238 11.8908 4.1498 11.7285 3.99383C11.5663 3.83786 11.3501 3.75051 11.125 3.75C10.7995 3.75 10.5185 3.93075 10.3678 4.195C10.2128 4.169 10.0577 4.146 9.903 4.12525C9.86809 4.08598 9.82528 4.05453 9.77737 4.03294C9.72947 4.01136 9.67754 4.00013 9.625 4C9.5445 4 9.4705 4.026 9.40925 4.069C9.27301 4.05594 9.13657 4.04494 9 4.036V4C9 3.72425 8.77575 3.5 8.5 3.5H7.25C7.1837 3.5 7.12011 3.52634 7.07322 3.57322C7.02634 3.62011 7 3.6837 7 3.75V4.03925C6.865 4.04875 6.7305 4.06 6.59575 4.073C6.53181 4.0258 6.45448 4.00023 6.375 4C6.26175 4 6.16125 4.0515 6.0925 4.131C5.93725 4.1515 5.7845 4.17425 5.6345 4.19925C5.4845 3.9325 5.202 3.75 4.875 3.75C4.6497 3.75052 4.4333 3.83803 4.27097 3.99426C4.10863 4.1505 4.0129 4.36338 4.00375 4.5885C3.853 4.63825 3.70775 4.69025 3.57175 4.74525C3.48228 4.66807 3.36816 4.62542 3.25 4.625C3.11739 4.625 2.99021 4.67768 2.89645 4.77145C2.80268 4.86521 2.75 4.99239 2.75 5.125C2.75 5.13825 2.753 5.1505 2.754 5.1635C2.58338 5.27358 2.42506 5.40165 2.28175 5.5455C2.19055 5.51671 2.09563 5.50138 2 5.5C1.4485 5.5 1 5.9485 1 6.5C1 7.034 1.4215 7.46775 1.949 7.49475C2.002 7.5905 2.067 7.68325 2.1405 7.77375C2.1315 7.80625 2.125 7.83975 2.125 7.875C2.125 7.97446 2.16451 8.06984 2.23483 8.14017C2.30516 8.21049 2.40054 8.25 2.5 8.25C2.54425 8.25 2.58625 8.241 2.62575 8.22675C2.73975 8.3105 2.8645 8.391 3 8.46825V9.0355C2.56975 9.14725 2.25 9.5355 2.25 10C2.25 10.5515 2.6985 11 3.25 11C3.8015 11 4.25 10.5515 4.25 10C4.25 9.5355 3.93025 9.14725 3.5 9.0355V8.721C3.60525 8.767 3.7165 8.81225 3.837 8.8575C4.05741 8.93688 4.28092 9.00735 4.507 9.06875C4.543 9.5875 4.972 10 5.5 10C5.69164 9.99952 5.8791 9.94399 6.04007 9.84001C6.20105 9.73603 6.32876 9.58799 6.408 9.4135C6.85396 9.45952 7.30172 9.48588 7.75 9.4925V9.99975C7.64825 9.90975 7.53325 9.83375 7.40675 9.7925C7.32022 9.76319 7.22856 9.75207 7.13752 9.75986C7.04649 9.76765 6.95805 9.79417 6.87775 9.83775C6.62675 9.9705 6.48925 10.2345 6.50075 10.562C6.519 11.0955 6.95275 11.8175 7.87925 12.2282C7.9102 12.242 7.94363 12.2493 7.97749 12.2497C8.01136 12.2502 8.04496 12.2437 8.07625 12.2308C9.0145 11.8422 9.4665 11.1305 9.49825 10.5972C9.5175 10.2708 9.38725 10.0037 9.13975 9.865C9.06056 9.81965 8.97288 9.79109 8.88216 9.78111C8.79145 9.77113 8.69966 9.77994 8.6125 9.807C8.4785 9.84725 8.35725 9.927 8.25 10.0208V9.49275C8.69838 9.48637 9.14625 9.45985 9.59225 9.41325C9.67134 9.58782 9.79897 9.73596 9.95992 9.83999C10.1209 9.94403 10.3084 9.99957 10.5 10C11.028 10 11.457 9.5875 11.493 9.06875C11.7198 9.00625 11.945 8.937 12.165 8.85675C12.2845 8.812 12.3953 8.767 12.5 8.72125V8.80275C12.1917 8.91475 11.8212 9.225 11.7785 9.911C11.7577 10.2425 11.8413 10.474 11.9148 10.6783C12.0268 10.9903 12.1155 11.2365 11.7782 11.885C11.7543 11.931 11.7452 11.9834 11.7523 12.0348C11.7594 12.0862 11.7824 12.1341 11.818 12.1719C11.8536 12.2097 11.9 12.2355 11.9509 12.2457C12.0018 12.2558 12.0546 12.2499 12.102 12.2288C13.9065 11.4228 13.7898 10.1553 13.711 9.78575C13.6103 9.31275 13.3252 8.9375 13 8.80525V8.46875C13.1292 8.39557 13.2541 8.31494 13.374 8.22725C13.4135 8.241 13.4555 8.25 13.5 8.25C13.5995 8.25 13.6948 8.21049 13.7652 8.14017C13.8355 8.06984 13.875 7.97446 13.875 7.875C13.875 7.83975 13.8685 7.80625 13.8595 7.77375C13.9332 7.68325 13.9983 7.5905 14.0513 7.49475C14.5785 7.46775 15 7.034 15 6.5ZM14.5 6.5C14.5 6.77575 14.2758 7 14 7C13.7242 7 13.5 6.77575 13.5 6.5C13.5 6.22425 13.7242 6 14 6C14.2758 6 14.5 6.22425 14.5 6.5ZM11.125 4.25C11.3317 4.25 11.5 4.41825 11.5 4.625C11.5 4.83175 11.3317 5 11.125 5C10.9183 5 10.75 4.83175 10.75 4.625C10.75 4.41825 10.9183 4.25 11.125 4.25ZM7.5 4H8.5V4.5H7.5V4ZM4.875 4.25C5.08175 4.25 5.25 4.41825 5.25 4.625C5.25 4.83175 5.08175 5 4.875 5C4.78811 4.99984 4.70397 4.96956 4.63691 4.9143C4.56985 4.85905 4.52403 4.78225 4.50725 4.697C4.50675 4.6955 4.50725 4.694 4.50675 4.69225C4.50246 4.67008 4.5002 4.64758 4.5 4.625C4.5 4.41825 4.66825 4.25 4.875 4.25ZM1.5 6.5C1.5 6.22425 1.72425 6 2 6C2.27575 6 2.5 6.22425 2.5 6.5C2.5 6.77575 2.27575 7 2 7C1.72425 7 1.5 6.77575 1.5 6.5ZM3.75 10C3.75 10.2758 3.52575 10.5 3.25 10.5C2.97425 10.5 2.75 10.2758 2.75 10C2.75 9.72425 2.97425 9.5 3.25 9.5C3.52575 9.5 3.75 9.72425 3.75 10ZM5.5 9.5C5.22425 9.5 5 9.27575 5 9C5 8.72425 5.22425 8.5 5.5 8.5C5.77575 8.5 6 8.72425 6 9C6 9.27575 5.77575 9.5 5.5 9.5ZM8.757 10.286C8.77971 10.2782 8.80385 10.2756 8.8277 10.2782C8.85156 10.2808 8.87454 10.2887 8.895 10.3013C8.991 10.3553 9.0045 10.476 8.999 10.5677C8.97825 10.9163 8.6515 11.4163 7.98375 11.7255C7.32575 11.4005 7.01225 10.8935 7 10.5448C6.99675 10.4523 7.01375 10.3313 7.11125 10.2795C7.13224 10.2674 7.15564 10.26 7.17979 10.2579C7.20394 10.2559 7.22825 10.2591 7.251 10.2675C7.4535 10.3333 7.68 10.6655 7.77525 10.8595C7.86525 11.0433 8.133 11.0365 8.222 10.8645C8.32125 10.673 8.55425 10.3468 8.757 10.286ZM10.5 9.5C10.2242 9.5 10 9.27575 10 9C10 8.72425 10.2242 8.5 10.5 8.5C10.7758 8.5 11 8.72425 11 9C11 9.27575 10.7758 9.5 10.5 9.5ZM11.9917 8.38775C11.7976 8.45764 11.6009 8.52018 11.402 8.57525C11.3216 8.40373 11.1942 8.25859 11.0345 8.15675C10.8748 8.0549 10.6894 8.00054 10.5 8C9.976 8 9.55 8.40625 9.50825 8.91925C9.08959 8.96183 8.66928 8.98627 8.2485 8.9925C8.2445 8.85825 8.1355 8.75 8 8.75C7.8645 8.75 7.756 8.858 7.7515 8.99225C7.33073 8.98579 6.91043 8.96135 6.49175 8.919C6.44975 8.406 6.02375 8 5.5 8C5.31062 8.00052 5.12529 8.05488 4.96563 8.15674C4.80597 8.25859 4.67855 8.40374 4.59825 8.57525C4.39998 8.52038 4.20384 8.45809 4.01025 8.3885C3.83658 8.32444 3.66628 8.25159 3.5 8.17025V8C3.5004 7.94285 3.48113 7.8873 3.44542 7.84268C3.40971 7.79806 3.35973 7.76708 3.30389 7.75494C3.24804 7.74281 3.18971 7.75025 3.13871 7.77603C3.0877 7.8018 3.04711 7.84434 3.02375 7.8965C2.9681 7.85901 2.91374 7.81966 2.86075 7.7785C2.84263 7.7104 2.80566 7.6488 2.75409 7.60078C2.70253 7.55275 2.63846 7.52025 2.56925 7.507C2.53303 7.46599 2.49891 7.42319 2.467 7.37875C2.7825 7.21025 3 6.88175 3 6.5C2.99963 6.24443 2.90078 5.99882 2.724 5.81425C2.81575 5.73225 2.91875 5.65225 3.03675 5.57575C3.10175 5.6065 3.1735 5.625 3.25 5.625C3.495 5.625 3.698 5.4485 3.74075 5.216C3.86824 5.16458 3.9973 5.11714 4.12775 5.07375C4.20486 5.20331 4.31423 5.31067 4.44519 5.38537C4.57615 5.46008 4.72423 5.49957 4.875 5.5C5.336 5.5 5.71075 5.1405 5.74375 4.68775C5.8625 4.66825 5.98225 4.65025 6.1045 4.6335C6.17275 4.705 6.2685 4.75 6.375 4.75C6.51225 4.75 6.631 4.6755 6.69625 4.5655C6.79875 4.55575 6.90125 4.54775 7.004 4.54025C7.01391 4.66514 7.07041 4.78174 7.1623 4.8669C7.25418 4.95207 7.37472 4.99958 7.5 5H8.5C8.763 5 8.97725 4.795 8.99625 4.53675C9.09825 4.54375 9.2 4.55175 9.301 4.56075C9.36575 4.67325 9.486 4.75 9.625 4.75C9.6766 4.74993 9.72762 4.73913 9.77483 4.7183C9.82204 4.69747 9.86441 4.66706 9.89925 4.629C10.018 4.64525 10.137 4.6635 10.2557 4.68325C10.2865 5.138 10.6625 5.5 11.125 5.5C11.4432 5.5 11.7195 5.3275 11.8725 5.073C12.0075 5.12 12.1377 5.16875 12.2595 5.22025C12.2816 5.33415 12.3426 5.43681 12.4321 5.51065C12.5216 5.5845 12.634 5.62492 12.75 5.625C12.8223 5.625 12.8902 5.609 12.9522 5.5815C13.071 5.6595 13.175 5.7405 13.2677 5.824C13.0963 6.00739 13.0006 6.24892 13 6.5C13 6.88175 13.2175 7.21025 13.5328 7.37875C13.501 7.42331 13.4669 7.46612 13.4305 7.507C13.3614 7.52024 13.2973 7.55272 13.2458 7.6007C13.1943 7.64868 13.1574 7.71022 13.1392 7.77825C13.088 7.81825 13.0335 7.85775 12.9762 7.8965C12.9527 7.84458 12.9121 7.8023 12.8611 7.77671C12.8102 7.75112 12.752 7.74377 12.6963 7.75587C12.6406 7.76798 12.5907 7.79882 12.555 7.84324C12.5193 7.88767 12.4999 7.94299 12.5 8V8.167C12.348 8.2425 12.184 8.31575 11.9917 8.38775ZM12.479 11.4455C12.571 11.0255 12.474 10.7558 12.3853 10.5085C12.3197 10.3268 12.2635 10.17 12.2775 9.9415C12.3153 9.3325 12.6885 9.25875 12.7615 9.25C12.8988 9.2595 13.1405 9.5065 13.222 9.88925C13.2718 10.1225 13.3355 10.836 12.479 11.4455Z" fill="white"/>
</svg>
