<svg width="48" height="14" viewBox="0 0 48 14" fill="none" xmlns="http://www.w3.org/2000/svg">
<path d="M7.5 11.3333C8.64888 11.332 9.75033 10.8751 10.5627 10.0627C11.3751 9.25033 11.832 8.14888 11.8333 7V4.83333C11.8333 3.68406 11.3768 2.58186 10.5641 1.7692C9.75147 0.956546 8.64927 0.5 7.5 0.5C6.35073 0.5 5.24853 0.956546 4.43587 1.7692C3.62321 2.58186 3.16667 3.68406 3.16667 4.83333V7C3.16796 8.14888 3.62492 9.25033 4.4373 10.0627C5.24967 10.8751 6.35112 11.332 7.5 11.3333ZM4.25 5.375H6.41667V4.29167H4.29875C4.42606 3.53469 4.81749 2.84732 5.40356 2.35159C5.98962 1.85586 6.73239 1.58385 7.5 1.58385C8.26761 1.58385 9.01038 1.85586 9.59644 2.35159C10.1825 2.84732 10.5739 3.53469 10.7013 4.29167H8.58333V5.375H10.75V6.45833H8.58333V7.54167H10.7013C10.5739 8.29864 10.1825 8.98601 9.59644 9.48174C9.01038 9.97747 8.26761 10.2495 7.5 10.2495C6.73239 10.2495 5.98962 9.97747 5.40356 9.48174C4.81749 8.98601 4.42606 8.29864 4.29875 7.54167H6.41667V6.45833H4.25V5.375Z" fill="black"/>
<path d="M12.9167 7.54167C12.9152 8.83416 12.4012 10.0733 11.4872 10.9872C10.5733 11.9012 9.33416 12.4152 8.04167 12.4167H6.95833C5.66589 12.4151 4.42683 11.901 3.51293 10.9871C2.59903 10.0732 2.08491 8.83411 2.08333 7.54167H1C1.00186 9.12134 1.63021 10.6358 2.74721 11.7528C3.86421 12.8698 5.37866 13.4981 6.95833 13.5H8.04167C9.62134 13.4981 11.1358 12.8698 12.2528 11.7528C13.3698 10.6358 13.9981 9.12134 14 7.54167H12.9167Z" fill="black"/>
<line x1="24.75" y1="0.5" x2="24.75" y2="13.5" stroke="#ABC0D4" stroke-width="1.5"/>
<path d="M47 12.5L44.3417 9.84167M45.7778 6.38889C45.7778 9.08895 43.5889 11.2778 40.8889 11.2778C38.1888 11.2778 36 9.08895 36 6.38889C36 3.68883 38.1888 1.5 40.8889 1.5C43.5889 1.5 45.7778 3.68883 45.7778 6.38889Z" stroke="black" stroke-width="1.5" stroke-linecap="round" stroke-linejoin="round"/>
</svg>
