<svg width="16" height="16" viewBox="0 0 16 16" fill="none" xmlns="http://www.w3.org/2000/svg">
<path d="M15.1871 2.11268C15.0746 2.05018 14.9496 2.10018 14.8871 2.20018C13.8996 4.03768 12.9121 5.51268 11.9746 6.57518C11.6246 6.41268 11.1996 6.57518 11.0371 6.92518C10.9496 7.11268 10.9496 7.32518 11.0371 7.51268C10.8996 7.63768 10.7621 7.75018 10.6246 7.85018C10.2746 7.55018 9.76209 7.60018 9.46209 7.93768C9.29959 8.12518 9.23709 8.37518 9.27459 8.62518C9.13709 8.67518 8.99959 8.72518 8.84959 8.76268C8.66209 8.27518 8.12459 8.03767 7.63709 8.21268C7.38709 8.31267 7.18709 8.51268 7.08709 8.76268C6.94959 8.72518 6.81209 8.68768 6.67459 8.62518C6.76209 8.17518 6.47459 7.75018 6.02459 7.66268C5.77459 7.61268 5.51209 7.68768 5.32459 7.85018C5.18709 7.75018 5.04959 7.63768 4.91209 7.51268C5.07459 7.16268 4.93709 6.73768 4.58709 6.57518C4.39959 6.48768 4.17459 6.48768 3.98709 6.57518C3.04959 5.50018 2.06209 4.03768 1.07459 2.18768C1.01209 2.08768 0.88709 2.05018 0.77459 2.10018C0.67459 2.16268 0.63709 2.28768 0.68709 2.38768C1.71209 4.28768 2.68709 5.75018 3.66209 6.86268C3.47459 7.20018 3.59959 7.63768 3.93709 7.82518C4.14959 7.93768 4.39959 7.95018 4.61209 7.82518C4.76209 7.96268 4.92459 8.08768 5.07459 8.21268C4.93709 8.65018 5.16209 9.11268 5.59959 9.25018C5.91209 9.35018 6.24959 9.26268 6.47459 9.01268C6.64959 9.08768 6.83709 9.13768 7.02459 9.18768C7.06209 9.58768 7.34959 9.91268 7.73709 10.0002V10.5127L7.24959 11.4002L6.31209 11.9127C6.16209 12.0002 6.16209 12.2127 6.31209 12.3002L7.24959 12.8127L7.76209 13.7502C7.84959 13.9002 8.06209 13.9002 8.14959 13.7502L8.66209 12.8127L9.59959 12.3002C9.74959 12.2127 9.74959 12.0002 9.59959 11.9127L8.66209 11.4002L8.17459 10.5127V10.0002C8.56209 9.91268 8.84959 9.57518 8.88709 9.18768C9.07459 9.13768 9.26209 9.07518 9.44959 9.01268C9.74959 9.35018 10.2746 9.38768 10.6121 9.08768C10.8621 8.86268 10.9496 8.51268 10.8496 8.20018C10.9996 8.08768 11.1496 7.96268 11.3121 7.82518C11.6496 8.01268 12.0871 7.88768 12.2746 7.55018C12.3871 7.33768 12.3871 7.07518 12.2746 6.86268C13.2496 5.76268 14.2246 4.30018 15.2496 2.40018C15.3371 2.30018 15.2996 2.17518 15.1871 2.11268ZM4.31209 6.95018C4.46209 6.95018 4.57459 7.07518 4.58709 7.21268C4.58709 7.45018 4.29959 7.57518 4.12459 7.40018C3.96209 7.25018 4.07459 6.95018 4.31209 6.95018ZM5.89959 8.87518C5.68709 8.87518 5.51209 8.70018 5.51209 8.48768C5.51209 8.27518 5.68709 8.10018 5.89959 8.10018C6.11209 8.10018 6.28709 8.27518 6.28709 8.48768C6.28709 8.70018 6.11209 8.87518 5.89959 8.87518ZM8.43709 11.7877L9.08709 12.1377L8.43709 12.4877C8.39959 12.5127 8.37459 12.5377 8.34959 12.5752L7.99959 13.2252L7.64959 12.5752C7.62459 12.5377 7.59959 12.5127 7.56209 12.4877L6.91209 12.1377L7.56209 11.7877C7.59959 11.7627 7.62459 11.7377 7.64959 11.7002L7.99959 11.0502L8.34959 11.7002C8.37459 11.7377 8.39959 11.7752 8.43709 11.7877ZM7.99959 9.61268C7.72459 9.61268 7.49959 9.38768 7.49959 9.11268C7.49959 8.83768 7.72459 8.61268 7.99959 8.61268C8.27459 8.61268 8.49959 8.83768 8.49959 9.11268C8.49959 9.38768 8.27459 9.61268 7.99959 9.61268ZM10.1121 8.87518C9.89959 8.87518 9.72459 8.70018 9.72459 8.48768C9.72459 8.27518 9.89959 8.10018 10.1121 8.10018C10.3246 8.10018 10.4996 8.27518 10.4996 8.48768C10.4996 8.70018 10.3246 8.87518 10.1121 8.87518ZM11.6871 7.48768C11.5371 7.48768 11.4246 7.36268 11.4246 7.22518C11.4246 7.08768 11.5496 6.96268 11.6871 6.96268C11.8621 6.96268 11.9496 7.07518 11.9496 7.22518C11.9621 7.37518 11.8371 7.48768 11.6871 7.48768Z" fill="white"/>
</svg>
