<svg width="127" height="19" viewBox="0 0 127 19" fill="none" xmlns="http://www.w3.org/2000/svg">
<path d="M20 9.55774C20 14.3279 16.3383 18.2824 11.5583 19V12.339H13.8825L14.325 9.58323H11.5583V7.79514C11.5583 7.04087 11.945 6.30652 13.1833 6.30652H14.4408V3.96009C14.4408 3.96009 13.2992 3.77372 12.2083 3.77372C9.93 3.77372 8.44167 5.09348 8.44167 7.48212V9.58244H5.90917V12.3383H8.44167V18.9992C3.6625 18.2808 0 14.3271 0 9.55774C0 4.27948 4.4775 0 10 0C15.5225 0 20 4.27868 20 9.55774Z" fill="white"/>
<path fill-rule="evenodd" clip-rule="evenodd" d="M47.5514 2.00551C44.447 2.03411 41.5193 2.19988 40.5242 2.40346C39.7595 2.55989 39.0149 3.11254 38.6485 3.79565C38.205 4.6225 38 6.42712 38 9.50532C38 12.5609 38.2061 14.3936 38.6401 15.1972C38.9489 15.7691 39.4852 16.2394 40.0765 16.4569C40.8926 16.757 43.1326 16.928 46.988 16.9845C51.881 17.0563 56.5076 16.8724 57.6311 16.5616C58.6446 16.2812 59.3486 15.5324 59.6008 14.4664C60.1508 12.1409 60.1279 6.44473 59.5603 4.39679C59.2438 3.25498 58.4084 2.56186 57.1053 2.3598C55.5456 2.11796 51.5262 1.9689 47.5514 2.00551ZM46.7935 9.50532C46.7935 11.2629 46.8011 12.701 46.8105 12.701C46.871 12.701 52.4496 9.54116 52.4523 9.50532C52.455 9.46938 46.8784 6.30967 46.8123 6.30967C46.8019 6.30967 46.7935 7.74771 46.7935 9.50532Z" fill="white"/>
<path fill-rule="evenodd" clip-rule="evenodd" d="M78.0499 2.57628C78.0773 2.61765 79.3019 4.36164 80.7712 6.45185C82.2406 8.54209 83.4428 10.2651 83.4428 10.2808C83.4428 10.2965 82.2365 11.6807 80.7622 13.3568C79.2879 15.033 78.0627 16.4258 78.0397 16.4522C77.9999 16.4975 78.0297 16.5 78.6129 16.5H79.2281L81.6035 13.8021C82.91 12.3182 83.9915 11.1007 84.0069 11.0964C84.0223 11.0922 84.8899 12.3063 85.9349 13.7944L87.8348 16.5H92L91.9501 16.4248C91.9227 16.3835 90.6547 14.5779 89.1322 12.4124C87.6098 10.247 86.359 8.46247 86.3528 8.44688C86.3465 8.4313 87.5107 7.09019 88.9398 5.46665L91.5383 2.51476L90.3312 2.5L90.2425 2.58941C90.1938 2.63857 89.1751 3.7923 87.9787 5.15323C86.7823 6.51416 85.7957 7.62992 85.7864 7.63268C85.777 7.63547 84.9583 6.48198 83.9671 5.0694L82.165 2.50109H78L78.0499 2.57628ZM79.6849 3.41463C79.6849 3.42081 81.6459 6.16763 84.0427 9.51865L88.4006 15.6114L89.3463 15.6186C89.9603 15.6233 90.2887 15.6163 90.2826 15.5988C90.2774 15.5839 88.3156 12.8342 85.9232 9.48835L81.5732 3.40498L80.629 3.40416C80.1098 3.40372 79.6849 3.40843 79.6849 3.41463Z" fill="white"/>
<path fill-rule="evenodd" clip-rule="evenodd" d="M115.359 1.01884C114.318 1.06393 113.749 1.15397 113.115 1.37355C111.807 1.82704 110.842 2.78958 110.388 4.09584C110.054 5.05695 110 5.80839 110 9.51003C110 11.8354 110.03 13.0754 110.1 13.6417C110.189 14.3624 110.361 14.9464 110.652 15.5089C111.169 16.5073 112.021 17.2351 113.115 17.6135C114.074 17.9451 114.842 18.0002 118.506 18C120.768 17.9999 122.084 17.9681 122.661 17.8997C123.931 17.7492 124.897 17.2999 125.66 16.5052C126.405 15.7281 126.801 14.8175 126.953 13.5314C127.016 12.9992 127.015 5.90653 126.952 5.40555C126.824 4.38837 126.519 3.55142 126.041 2.91029C125.804 2.59167 125.299 2.10774 124.982 1.89387C124.262 1.40881 123.429 1.15131 122.252 1.04928C121.742 1.00514 116.235 0.980815 115.359 1.01884ZM115.06 2.5808C113.285 2.68316 112.264 3.34244 111.817 4.67655C111.584 5.37261 111.552 5.95233 111.551 9.49341C111.55 13.1847 111.583 13.7035 111.872 14.4698C112.04 14.9161 112.175 15.1219 112.548 15.4969C112.849 15.7992 112.919 15.8515 113.231 16.0038C113.838 16.2993 114.309 16.3886 115.526 16.439C116.538 16.4808 120.508 16.4808 121.519 16.439C122.418 16.4018 122.712 16.3686 123.143 16.2555C123.748 16.0971 124.184 15.8437 124.584 15.4175C125.129 14.8378 125.358 14.2191 125.455 13.0639C125.485 12.7114 125.497 11.677 125.497 9.49341C125.497 5.74275 125.473 5.35261 125.198 4.58319C125.037 4.13243 124.851 3.83903 124.519 3.50931C124.005 2.99879 123.479 2.76528 122.526 2.62384C122.22 2.57857 121.685 2.5697 118.839 2.56289C117.008 2.55847 115.307 2.56654 115.06 2.5808ZM122.741 3.99115C122.031 4.24413 121.825 5.13801 122.356 5.6675C122.564 5.87532 122.754 5.95176 123.067 5.95292C123.293 5.95375 123.363 5.93963 123.523 5.8612C123.86 5.69602 124.05 5.40598 124.076 5.01933C124.098 4.67741 124.024 4.47674 123.786 4.24021C123.66 4.11395 123.548 4.03681 123.436 3.99892C123.24 3.93242 122.916 3.9288 122.741 3.99115ZM117.74 5.19477C117.367 5.26184 116.825 5.44875 116.493 5.62506C115.693 6.0496 115 6.75654 114.596 7.56012C114.448 7.85368 114.274 8.39109 114.211 8.74563C114.134 9.17413 114.14 9.88675 114.223 10.3102C114.653 12.511 116.663 14.0355 118.881 13.8434C119.97 13.7491 120.9 13.3065 121.663 12.5203C122.145 12.0229 122.455 11.5164 122.668 10.8783C122.824 10.4107 122.884 10.0236 122.884 9.49341C122.884 8.75441 122.757 8.20614 122.432 7.54919C122.026 6.72546 121.288 5.98722 120.459 5.57358C120.163 5.42576 119.624 5.25161 119.276 5.19105C118.906 5.12688 118.107 5.1288 117.74 5.19477ZM117.949 6.71689C117.174 6.88625 116.464 7.39597 116.071 8.06432C115.834 8.4669 115.721 8.86448 115.701 9.3629C115.681 9.8476 115.738 10.1967 115.896 10.5763C116.18 11.2597 116.78 11.85 117.476 12.1324C118.03 12.357 118.805 12.3805 119.388 12.1904C119.827 12.0475 120.177 11.8335 120.503 11.5084C120.823 11.1898 121.016 10.9051 121.156 10.5425C121.801 8.87788 120.801 7.05057 119.061 6.71553C118.767 6.6589 118.212 6.65959 117.949 6.71689Z" fill="white"/>
</svg>
