<svg width="16" height="16" viewBox="0 0 16 16" fill="none" xmlns="http://www.w3.org/2000/svg">
<path d="M9.96887 13.9572C10.0157 13.6001 10.1449 13.2587 10.3463 12.96C10.3511 12.9514 10.3553 12.9424 10.359 12.9333C14.6728 10.4021 14.9306 4.87116 14.9327 4.80978C14.935 4.74959 14.9168 4.69042 14.881 4.64191C14.8453 4.59341 14.7942 4.55844 14.7361 4.54272C14.232 4.40384 13.7523 4.18792 13.3142 3.90259C13.3453 3.75981 13.3367 3.61121 13.2893 3.47297C13.2419 3.33473 13.1574 3.21215 13.0451 3.11858C12.9329 3.025 12.7971 2.96402 12.6526 2.94226C12.5081 2.92051 12.3603 2.93881 12.2255 2.99519C11.9144 2.66473 11.6379 2.30331 11.4004 1.91656C11.396 1.90941 11.3913 1.9025 11.3864 1.89572C11.2056 1.60869 11.0506 1.30621 10.9232 0.991844C10.8217 0.311906 9.36262 0 7.99965 0C6.63669 0 5.17759 0.311906 5.07615 0.991844C4.94872 1.30621 4.79371 1.60869 4.61294 1.89572C4.608 1.9025 4.60331 1.90941 4.59887 1.91656C4.36137 2.30331 4.08491 2.66473 3.77381 2.99519C3.63897 2.93838 3.49111 2.91975 3.3464 2.94133C3.20168 2.96292 3.06569 3.02389 2.9533 3.11757C2.84091 3.21125 2.75645 3.33404 2.70915 3.4725C2.66186 3.61096 2.65356 3.75976 2.68515 3.90263C2.24696 4.18793 1.76732 4.40385 1.26322 4.54275C1.20508 4.55848 1.15398 4.59345 1.11827 4.64195C1.08256 4.69045 1.06435 4.74962 1.06659 4.80981C1.06875 4.87119 1.32644 10.4018 5.64028 12.9333C5.644 12.9425 5.64825 12.9514 5.65303 12.9601C5.85299 13.2594 5.9816 13.6006 6.02894 13.9574C4.32934 14.116 3.46631 14.4437 3.46631 14.9334C3.46631 15.9486 7.24262 16 7.99965 16C8.75669 16 12.533 15.9486 12.533 14.9333C12.533 14.4435 11.6695 14.1157 9.96887 13.9572ZM12.533 3.46666C12.6037 3.46671 12.6715 3.49483 12.7215 3.54482C12.7715 3.59482 12.7996 3.66261 12.7997 3.73331C12.7997 3.88059 12.6803 3.99997 12.533 3.99997C12.3857 3.99997 12.2663 3.88059 12.2663 3.73331C12.2663 3.58603 12.3857 3.46666 12.533 3.46666ZM11.9997 4.66666C11.9997 4.88756 11.8206 5.06666 11.5997 5.06666C11.3788 5.06641 11.1999 4.88747 11.1997 4.66666C11.1997 4.44575 11.3787 4.26666 11.5997 4.26666C11.8206 4.26666 11.9997 4.44575 11.9997 4.66666ZM7.99965 0.533344C9.5455 0.533344 10.345 0.91575 10.3989 1.06669C10.345 1.21759 9.5455 1.6 7.99965 1.6C6.43975 1.6 5.64003 1.21066 5.59912 1.07069C5.64003 0.922656 6.43975 0.533344 7.99965 0.533344ZM5.04447 2.21041L5.0554 2.19412V2.19425C5.17755 1.99827 5.29004 1.79644 5.39247 1.58947C5.54019 1.6898 5.70061 1.77002 5.8695 1.82803C5.88807 1.83716 5.90767 1.84401 5.92787 1.84844C6.59974 2.04929 7.29855 2.14536 7.99969 2.13328C8.70089 2.14535 9.39977 2.04924 10.0717 1.84834C10.0916 1.84393 10.1109 1.83719 10.1292 1.82825C10.2983 1.77021 10.4589 1.6899 10.6069 1.58944C10.7093 1.7964 10.8218 1.99823 10.9439 2.19422V2.19409L10.9549 2.21038C11.2082 2.62052 11.5021 3.0041 11.8323 3.35531C11.7681 3.471 11.7339 3.60098 11.733 3.73331C11.733 3.73797 11.7343 3.74228 11.7344 3.74694C11.6899 3.73909 11.6449 3.73454 11.5997 3.73331C11.1216 3.73484 10.7223 4.09822 10.6757 4.57409C10.586 4.54833 10.4931 4.53461 10.3997 4.53331C9.88365 4.53437 9.4424 4.90481 9.35197 5.41291C8.86781 5.22481 8.31759 5.37759 7.99972 5.78837C7.88848 5.64711 7.74676 5.5328 7.58514 5.454C7.42352 5.3752 7.24618 5.33394 7.06637 5.33331C6.92308 5.33435 6.78115 5.36131 6.64747 5.41291C6.55703 4.90481 6.11578 4.53441 5.59972 4.53331C5.5063 4.5346 5.41348 4.54831 5.32369 4.57409C5.27719 4.09822 4.87787 3.73488 4.39972 3.73331C4.35455 3.73453 4.30953 3.73909 4.26503 3.74694C4.26509 3.74231 4.2664 3.738 4.2664 3.73331C4.26549 3.60099 4.23135 3.47101 4.16712 3.35531C4.49726 3.0041 4.79119 2.62052 5.04447 2.21041ZM10.933 5.6C10.933 5.89456 10.6942 6.13334 10.3997 6.13334C10.1052 6.133 9.86665 5.89444 9.86631 5.6C9.86631 5.30544 10.1051 5.06666 10.3997 5.06666C10.6942 5.06666 10.933 5.30544 10.933 5.6ZM9.59965 6.53334C9.59965 6.90153 9.30119 7.2 8.933 7.2C8.56481 7.2 8.26634 6.90153 8.26634 6.53334C8.26672 6.16531 8.56497 5.86706 8.933 5.86669C9.30119 5.86666 9.59965 6.16516 9.59965 6.53334ZM7.733 6.53334C7.733 6.90153 7.43453 7.2 7.06634 7.2C6.69815 7.2 6.39969 6.90153 6.39969 6.53334C6.40006 6.16531 6.69831 5.86706 7.06634 5.86669C7.43453 5.86666 7.733 6.16516 7.733 6.53334ZM6.133 5.6C6.133 5.89456 5.89422 6.13334 5.59965 6.13334C5.30509 6.13334 5.06631 5.89456 5.06631 5.6C5.06665 5.30559 5.30525 5.067 5.59965 5.06666C5.89422 5.06666 6.133 5.30544 6.133 5.6ZM4.39965 4.26666C4.62056 4.26666 4.79965 4.44575 4.79965 4.66666C4.79965 4.88756 4.62056 5.06666 4.39965 5.06666C4.17875 5.06666 3.99965 4.88756 3.99965 4.66666C3.9999 4.44584 4.17884 4.26691 4.39965 4.26666ZM3.46631 3.46666C3.61359 3.46666 3.73297 3.58603 3.73297 3.73331C3.73297 3.88059 3.61359 3.99997 3.46631 3.99997C3.39559 3.99997 3.32776 3.97187 3.27776 3.92187C3.22775 3.87186 3.19965 3.80403 3.19965 3.73331C3.19974 3.66262 3.22786 3.59484 3.27785 3.54485C3.32784 3.49486 3.39561 3.46674 3.46631 3.46666ZM1.61475 4.99531C2.09269 4.84328 2.54811 4.62788 2.96884 4.35488C3.10934 4.46957 3.28495 4.53256 3.46631 4.53334C3.471 4.53334 3.47528 4.53203 3.4799 4.53197C3.47208 4.57648 3.46754 4.62151 3.46631 4.66669C3.46694 5.18191 3.88444 5.59941 4.39965 5.60003C4.44482 5.59881 4.48984 5.59425 4.53434 5.58641C4.53428 5.59106 4.53297 5.59534 4.53297 5.60003C4.53359 6.18888 5.01078 6.66606 5.59962 6.66669C5.69304 6.6654 5.78586 6.65169 5.87565 6.62591C5.89246 6.86582 5.98153 7.09503 6.13114 7.28334C6.28075 7.47165 6.48388 7.61023 6.71378 7.68085C6.94369 7.75147 7.18959 7.7508 7.41911 7.67894C7.64863 7.60708 7.85101 7.4674 7.99959 7.27828C8.14819 7.46738 8.35056 7.60705 8.58008 7.6789C8.80959 7.75075 9.05549 7.75141 9.28538 7.6808C9.51528 7.61018 9.71841 7.4716 9.86802 7.28331C10.0176 7.09501 10.1067 6.86582 10.1235 6.62591C10.2133 6.65167 10.3061 6.66539 10.3996 6.66669C10.9884 6.66606 11.4656 6.18888 11.4662 5.60003C11.4662 5.59534 11.4649 5.59106 11.4648 5.58641C11.5093 5.59425 11.5544 5.59881 11.5995 5.60003C12.1147 5.59941 12.5322 5.18191 12.5329 4.66669C12.5316 4.62151 12.5271 4.57648 12.5193 4.53197C12.5239 4.53206 12.5282 4.53334 12.5329 4.53334C12.7142 4.53256 12.8899 4.46957 13.0304 4.35488C13.4512 4.62794 13.9067 4.84335 14.3847 4.99534C14.2839 6.10706 13.5514 11.4103 8.7144 13.1082C8.2516 13.269 7.74812 13.2691 7.28525 13.1085C2.45487 11.4128 1.71684 6.10744 1.61475 4.99531ZM7.99965 15.4667C5.67831 15.4667 4.34287 15.1394 4.04209 14.9346C4.21069 14.8242 4.7635 14.6156 6.03706 14.4923C6.02415 14.617 6.00066 14.7404 5.96684 14.8612C5.95679 14.8951 5.95358 14.9306 5.95739 14.9658C5.9612 15.0009 5.97196 15.035 5.98905 15.0659C6.00613 15.0969 6.0292 15.1241 6.0569 15.1461C6.08461 15.168 6.1164 15.1843 6.15044 15.1938C6.18447 15.2034 6.22007 15.2061 6.25516 15.2018C6.29025 15.1975 6.32413 15.1862 6.35483 15.1687C6.38553 15.1512 6.41244 15.1277 6.434 15.0997C6.45556 15.0717 6.47133 15.0396 6.4804 15.0055C6.63398 14.4564 6.61542 13.8735 6.42725 13.3353C6.64662 13.4342 6.87162 13.5284 7.10931 13.6118C7.68622 13.8119 8.31371 13.8118 8.89056 13.6116C9.12806 13.5282 9.35287 13.434 9.57212 13.3353C9.38391 13.8735 9.36534 14.4564 9.51894 15.0055C9.52841 15.0392 9.54443 15.0707 9.56609 15.0982C9.58775 15.1258 9.61461 15.1488 9.64516 15.1659C9.6757 15.1831 9.70932 15.194 9.7441 15.1982C9.77888 15.2023 9.81414 15.1996 9.84786 15.1901C9.88158 15.1806 9.9131 15.1646 9.94063 15.143C9.96816 15.1213 9.99115 15.0944 10.0083 15.0639C10.0254 15.0333 10.0364 14.9997 10.0406 14.9649C10.0447 14.9302 10.042 14.8949 10.0325 14.8612C9.99862 14.7404 9.97497 14.617 9.96178 14.4922C11.2357 14.6155 11.7886 14.8242 11.9572 14.9346C11.6564 15.1395 10.321 15.4667 7.99965 15.4667Z" fill="white"/>
</svg>
