<svg width="570" height="570" viewBox="0 0 570 570" fill="none" xmlns="http://www.w3.org/2000/svg">
<path opacity="0.14" d="M398.2 88.0304L398.421 88.5482L398.979 88.4813L492.774 77.2238L481.519 171.02L481.451 171.578L481.969 171.8L568.825 208.949L512.18 284.55L511.843 285L512.18 285.45L568.825 361.05L481.968 398.2L481.452 398.422L481.519 398.98L492.774 492.774L398.98 481.519L398.421 481.452L398.2 481.969L361.05 568.825L285.45 512.18L285 511.843L284.549 512.18L208.948 568.825L171.799 481.969L171.578 481.452L171.02 481.519L77.2245 492.774L88.4806 398.98L88.5474 398.421L88.0306 398.201L1.17276 361.05L57.8195 285.45L58.1567 285L57.819 284.549L1.17266 208.948L88.0302 171.799L88.5478 171.579L88.4808 171.02L77.2236 77.2244L171.02 88.481L171.578 88.5475L171.799 88.031L208.949 1.17294L284.55 57.8199L285 58.1571L285.45 57.8192L361.05 1.17284L398.2 88.0304Z" stroke="#D48B00" stroke-width="1.5"/>
</svg>
