<svg width="893" height="893" viewBox="0 0 893 893" fill="none" xmlns="http://www.w3.org/2000/svg">
<path d="M535.124 114.011L535.471 114.453L535.994 114.244L669.142 60.8708L689.495 202.869L689.575 203.425L690.132 203.505L832.128 223.858L778.756 357.007L778.547 357.529L778.989 357.876L891.785 446.499L778.989 535.124L778.547 535.471L778.756 535.994L832.128 669.142L690.132 689.495L689.575 689.575L689.495 690.132L669.142 832.128L535.994 778.756L535.471 778.547L535.124 778.989L446.499 891.785L357.876 778.989L357.529 778.547L357.007 778.756L223.858 832.128L203.505 690.132L203.425 689.575L202.869 689.495L60.8708 669.142L114.244 535.994L114.453 535.471L114.011 535.124L1.21366 446.499L114.011 357.876L114.453 357.529L114.244 357.007L60.8708 223.858L202.869 203.505L203.425 203.425L203.505 202.869L223.858 60.8708L357.007 114.244L357.529 114.453L357.876 114.011L446.499 1.21366L535.124 114.011Z" stroke="#D48B00" stroke-width="1.5"/>
</svg>
