<svg width="12" height="12" viewBox="0 0 12 12" fill="none" xmlns="http://www.w3.org/2000/svg">
<path d="M11.6422 2.0385C11.498 1.86972 11.3175 1.73398 11.1135 1.64091C10.9095 1.54784 10.6869 1.49973 10.4617 1.5H2.17436L2.15283 1.3245C2.10877 0.959709 1.92903 0.623366 1.64768 0.379239C1.36633 0.135112 1.00292 0.000170897 0.62637 0H0.512578C0.376634 0 0.246258 0.0526784 0.150131 0.146447C0.0540036 0.240215 0 0.367392 0 0.5C0 0.632608 0.0540036 0.759785 0.150131 0.853553C0.246258 0.947322 0.376634 1 0.512578 1H0.62637C0.751918 1.00002 0.873093 1.04498 0.966913 1.12636C1.06073 1.20774 1.12067 1.31987 1.13536 1.4415L1.84067 7.2915C1.91389 7.89989 2.21356 8.46089 2.68279 8.86801C3.15202 9.27512 3.75815 9.50001 4.38613 9.5H9.73898C9.87493 9.5 10.0053 9.44732 10.1014 9.35355C10.1976 9.25979 10.2516 9.13261 10.2516 9C10.2516 8.86739 10.1976 8.74021 10.1014 8.64645C10.0053 8.55268 9.87493 8.5 9.73898 8.5H4.38613C4.06887 8.49913 3.75966 8.40256 3.50087 8.22353C3.24209 8.0445 3.04641 7.79177 2.94066 7.5H9.05059C9.65148 7.50004 10.2333 7.29412 10.6943 6.91822C11.1554 6.54232 11.4664 6.02035 11.573 5.4435L11.9754 3.2665C12.0155 3.0505 12.0065 2.82853 11.9489 2.61632C11.8913 2.4041 11.7866 2.20684 11.6422 2.0385Z" fill="black"/>
<path d="M3.58805 12C4.15422 12 4.6132 11.5523 4.6132 11C4.6132 10.4477 4.15422 10 3.58805 10C3.02187 10 2.56289 10.4477 2.56289 11C2.56289 11.5523 3.02187 12 3.58805 12Z" fill="black"/>
<path d="M8.71383 12C9.28 12 9.73898 11.5523 9.73898 11C9.73898 10.4477 9.28 10 8.71383 10C8.14765 10 7.68867 10.4477 7.68867 11C7.68867 11.5523 8.14765 12 8.71383 12Z" fill="black"/>
</svg>
