<svg width="10" height="9" viewBox="0 0 10 9" fill="none" xmlns="http://www.w3.org/2000/svg">
<path d="M9.98083 1.85809L6.47333 5.30182C6.08224 5.68483 5.55239 5.89993 5 5.89993C4.44761 5.89993 3.91776 5.68483 3.52667 5.30182L0.0191667 1.85809C0.0133333 1.92273 0 1.98123 0 2.04545V6.95455C0.000661607 7.49683 0.220367 8.01673 0.610925 8.40018C1.00148 8.78364 1.531 8.99935 2.08333 9H7.91667C8.469 8.99935 8.99852 8.78364 9.38908 8.40018C9.77963 8.01673 9.99934 7.49683 10 6.95455V2.04545C10 1.98123 9.98667 1.92273 9.98083 1.85809Z" fill="#333A40"/>
<path d="M5.88417 4.72336L9.69 0.986318C9.50564 0.686176 9.2456 0.437743 8.93499 0.264981C8.62438 0.0922186 8.27366 0.000957545 7.91667 0H2.08333C1.72634 0.000957545 1.37563 0.0922186 1.06501 0.264981C0.754397 0.437743 0.494366 0.686176 0.31 0.986318L4.11583 4.72336C4.35065 4.95299 4.66858 5.08192 5 5.08192C5.33142 5.08192 5.64934 4.95299 5.88417 4.72336Z" fill="#333A40"/>
</svg>
