<svg width="21" height="25" viewBox="0 0 21 25" fill="none" xmlns="http://www.w3.org/2000/svg">
<path d="M15.1087 0C13.798 0.0906579 12.266 0.929628 11.3733 2.02213C10.5589 3.01322 9.88892 4.48526 10.1501 5.91582C11.5822 5.96038 13.062 5.10143 13.9194 3.99049C14.7215 2.95637 15.3284 1.49355 15.1087 0Z" fill="white"/>
<path d="M20.2886 8.24834C19.0301 6.67027 17.2615 5.75447 15.5912 5.75447C13.3862 5.75447 12.4535 6.8101 10.9215 6.8101C9.34189 6.8101 8.14181 5.75755 6.23491 5.75755C4.3618 5.75755 2.36731 6.9023 1.1027 8.85989C-0.675139 11.6165 -0.370894 16.7994 2.51021 21.214C3.54126 22.7936 4.91805 24.5698 6.71893 24.5852C8.3216 24.6006 8.77335 23.5572 10.9446 23.5465C13.1158 23.5342 13.5276 24.599 15.1272 24.5821C16.9296 24.5683 18.3817 22.6 19.4127 21.0204C20.1518 19.8879 20.4269 19.3178 21 18.0394C16.8312 16.4521 16.1628 10.524 20.2886 8.24834Z" fill="white"/>
</svg>
