<svg width="10" height="10" viewBox="0 0 10 10" fill="none" xmlns="http://www.w3.org/2000/svg">
<path d="M0 2.60231C0 5.78465 4.22016 10 7.39881 10C8.09454 10 8.74443 9.73758 9.22352 9.25857L9.64012 8.77955C10.1234 8.29637 10.1234 7.47995 9.61929 6.97595C9.60679 6.96345 8.60279 6.19286 8.60279 6.19286C8.10287 5.71801 7.31549 5.71801 6.81974 6.19286L6.2115 6.68021C4.87838 6.11372 3.9327 5.16401 3.32447 3.78528L3.80772 3.17713C4.28681 2.68145 4.28681 1.89003 3.80772 1.39436C3.80772 1.39436 3.03701 0.390503 3.02451 0.378007C2.52043 -0.126002 1.70389 -0.126002 1.19981 0.378007L0.762377 0.757055C0.262457 1.25273 0 1.90253 0 2.59815V2.60231Z" fill="#333A40"/>
</svg>
